<svg width="164" height="17" viewBox="0 0 164 17" fill="none" xmlns="http://www.w3.org/2000/svg">
<path d="M15.4168 12.5625C15.4168 13.1875 15.2671 13.6953 14.9676 14.0859C14.6681 14.4635 14.2449 14.7695 13.698 15.0039C13.2423 15.1992 12.6694 15.3555 11.9793 15.4727C11.2892 15.5768 10.573 15.6549 9.83086 15.707C9.08867 15.7461 8.3595 15.7721 7.64336 15.7852C6.92721 15.7982 6.32825 15.8047 5.84648 15.8047C5.02617 15.8047 4.21237 15.7917 3.40508 15.7656C2.6108 15.7396 1.80351 15.7005 0.9832 15.6484C1.02226 14.3203 0.9832 13.0052 0.866013 11.7031C1.84258 11.7292 2.81263 11.7552 3.77617 11.7812C4.75273 11.7943 5.72929 11.8138 6.70586 11.8398C7.08346 11.8529 7.46106 11.8659 7.83867 11.8789C8.22929 11.8919 8.61992 11.8984 9.01054 11.8984C9.07565 11.8984 9.1733 11.8984 9.30351 11.8984C9.43372 11.8984 9.57044 11.8919 9.71367 11.8789C9.8569 11.8659 9.98711 11.8464 10.1043 11.8203C10.2345 11.7943 10.3322 11.7552 10.3973 11.7031C10.4493 11.651 10.4819 11.5794 10.4949 11.4883C10.5079 11.3841 10.5145 11.293 10.5145 11.2148C10.5145 11.0716 10.4949 10.9023 10.4559 10.707C10.4168 10.4987 10.3582 10.3294 10.2801 10.1992C10.2671 10.1862 10.2215 10.1732 10.1434 10.1602C10.0783 10.1471 10.0001 10.1406 9.90898 10.1406C9.81784 10.1276 9.7332 10.1211 9.65508 10.1211C9.57695 10.1081 9.53138 10.1016 9.51836 10.1016C8.68502 10.0365 7.85169 9.99089 7.01836 9.96484C6.19804 9.9388 5.37122 9.89323 4.53789 9.82812C4.16028 9.78906 3.76966 9.75 3.36601 9.71094C2.97539 9.67188 2.6108 9.60026 2.27226 9.49609C1.94674 9.40495 1.66679 9.20312 1.43242 8.89062C1.21106 8.5651 1.02877 8.20052 0.885544 7.79688C0.755335 7.38021 0.657679 6.96354 0.592575 6.54688C0.540492 6.13021 0.51445 5.77865 0.51445 5.49219C0.51445 5.02344 0.560023 4.58073 0.651169 4.16406C0.742315 3.73438 0.885544 3.33724 1.08086 2.97266C1.28919 2.60807 1.54961 2.28906 1.86211 2.01562C2.17461 1.72917 2.55872 1.49479 3.01445 1.3125C3.7957 1.01302 4.62903 0.804688 5.51445 0.6875C6.41289 0.570312 7.27226 0.511719 8.09258 0.511719C9.05612 0.511719 10.0066 0.570312 10.9441 0.6875C11.8816 0.804688 12.8191 0.954427 13.7566 1.13672C13.7436 1.51432 13.7306 1.89193 13.7176 2.26953C13.7176 2.63411 13.7176 3.00521 13.7176 3.38281C13.7176 3.76042 13.7371 4.14453 13.7762 4.53516C13.8152 4.91276 13.8543 5.29036 13.8934 5.66797C12.6564 5.69401 11.4194 5.72005 10.1824 5.74609C8.95846 5.75911 7.72148 5.79167 6.47148 5.84375C6.31523 5.84375 6.10039 5.85026 5.82695 5.86328C5.56653 5.8763 5.31263 5.89583 5.06523 5.92188C4.81784 5.9349 4.60299 5.94792 4.4207 5.96094C4.23841 5.97396 4.14726 5.98047 4.14726 5.98047C4.08216 6.1237 4.0431 6.27344 4.03008 6.42969C4.01705 6.57292 4.01054 6.72266 4.01054 6.87891C4.01054 6.95703 4.01054 7.05469 4.01054 7.17188C4.02356 7.28906 4.05612 7.38021 4.1082 7.44531C4.12122 7.45833 4.2319 7.47786 4.44023 7.50391C4.64856 7.52995 4.87643 7.55599 5.12383 7.58203C5.38424 7.60807 5.62513 7.63411 5.84648 7.66016C6.08086 7.6862 6.22409 7.69922 6.27617 7.69922C6.70586 7.73828 7.20716 7.78385 7.78008 7.83594C8.36601 7.88802 8.95846 7.94661 9.55742 8.01172C10.1694 8.07682 10.7553 8.16146 11.3152 8.26562C11.8751 8.35677 12.3634 8.46745 12.7801 8.59766C13.1577 8.72786 13.5027 8.9362 13.8152 9.22266C14.1408 9.49609 14.4207 9.82161 14.6551 10.1992C14.8895 10.5638 15.0717 10.9544 15.202 11.3711C15.3452 11.7747 15.4168 12.1719 15.4168 12.5625ZM32.348 15.9414L29.3793 16.3906C29.171 15.7266 28.9626 15.069 28.7543 14.418C28.546 13.7539 28.3441 13.0898 28.1488 12.4258L23.3441 12.6016L22.7387 15.1992H19.7309C19.9131 12.9857 20.1019 10.7852 20.2973 8.59766C20.4926 6.41016 20.6814 4.21615 20.8637 2.01562C21.8012 1.85938 22.7322 1.72917 23.6566 1.625C24.5941 1.52083 25.5381 1.46875 26.4887 1.46875C27.6475 1.46875 28.8064 1.48828 29.9652 1.52734C30.1736 2.88151 30.3754 4.23568 30.5707 5.58984C30.779 6.93099 30.9939 8.27865 31.2152 9.63281C31.3715 10.7005 31.5408 11.7552 31.723 12.7969C31.9184 13.8385 32.1267 14.8867 32.348 15.9414ZM27.4652 9.76953C27.4522 9.65234 27.4197 9.4375 27.3676 9.125C27.3155 8.79948 27.2569 8.46094 27.1918 8.10938C27.1267 7.74479 27.0486 7.41927 26.9574 7.13281C26.8793 6.83333 26.8012 6.65755 26.723 6.60547C26.697 6.59245 26.6319 6.57943 26.5277 6.56641C26.4366 6.55339 26.3324 6.54036 26.2152 6.52734C26.1111 6.51432 26.0069 6.50781 25.9027 6.50781C25.7986 6.50781 25.7269 6.50781 25.6879 6.50781C25.6228 6.50781 25.5316 6.50781 25.4144 6.50781C25.3103 6.50781 25.1931 6.51432 25.0629 6.52734C24.9457 6.52734 24.8285 6.54036 24.7113 6.56641C24.6072 6.59245 24.5355 6.625 24.4965 6.66406C24.4704 6.67708 24.4379 6.76172 24.3988 6.91797C24.3598 7.07422 24.3077 7.26953 24.2426 7.50391C24.1905 7.72526 24.1319 7.96615 24.0668 8.22656C24.0147 8.48698 23.9626 8.73438 23.9105 8.96875C23.8585 9.20312 23.8129 9.40495 23.7738 9.57422C23.7478 9.74349 23.7283 9.84115 23.7152 9.86719L27.4652 9.76953ZM49.4941 16.3125C47.9186 16.2865 46.304 16.2474 44.6504 16.1953C43.0098 16.1432 41.4017 16.026 39.8262 15.8438C39.6439 15.8177 39.4355 15.7982 39.2012 15.7852C38.9798 15.7591 38.778 15.7135 38.5957 15.6484C38.2181 15.5052 37.9186 15.349 37.6973 15.1797C37.4889 14.9974 37.3262 14.7956 37.209 14.5742C37.0918 14.3398 37.0072 14.0859 36.9551 13.8125C36.903 13.526 36.8574 13.207 36.8184 12.8555C36.7012 11.944 36.61 11.0326 36.5449 10.1211C36.4798 9.19661 36.4473 8.27214 36.4473 7.34766C36.4473 7.17839 36.4473 6.97656 36.4473 6.74219C36.4603 6.49479 36.4733 6.24089 36.4863 5.98047C36.5124 5.72005 36.5449 5.47266 36.584 5.23828C36.623 5.00391 36.6751 4.80859 36.7402 4.65234C37.0527 3.97526 37.5085 3.4349 38.1074 3.03125C38.7194 2.61458 39.39 2.29557 40.1191 2.07422C40.8483 1.83984 41.597 1.6901 42.3652 1.625C43.1465 1.54688 43.8626 1.50781 44.5137 1.50781C45.9069 1.50781 47.3001 1.64453 48.6934 1.91797L48.8496 6.09766C47.5215 5.68099 46.1478 5.47266 44.7285 5.47266C44.4681 5.47266 44.123 5.48568 43.6934 5.51172C43.2637 5.53776 42.821 5.58984 42.3652 5.66797C41.9225 5.73307 41.5059 5.83724 41.1152 5.98047C40.7246 6.11068 40.4512 6.29297 40.2949 6.52734C40.2168 6.64453 40.1452 6.80729 40.0801 7.01562C40.028 7.22396 39.9824 7.44531 39.9434 7.67969C39.9173 7.90104 39.8978 8.1224 39.8848 8.34375C39.8717 8.5651 39.8652 8.7474 39.8652 8.89062C39.8652 9.1901 39.8848 9.54818 39.9238 9.96484C39.9759 10.3685 40.0345 10.7852 40.0996 11.2148C40.1647 11.6445 40.2428 12.0547 40.334 12.4453C40.4251 12.8359 40.5228 13.1549 40.6269 13.4023H44.084L43.9082 9.63281C44.8066 9.69792 45.7051 9.73047 46.6035 9.73047C47.515 9.71745 48.4199 9.71094 49.3184 9.71094C49.4095 10.8177 49.4616 11.918 49.4746 13.0117C49.4876 14.1055 49.4941 15.2057 49.4941 16.3125ZM65.6246 4.10547C64.3486 4.17057 63.079 4.24219 61.816 4.32031C60.566 4.38542 59.303 4.47005 58.027 4.57422L57.9879 6.11719L63.027 5.82422C63.0921 6.26693 63.1376 6.70312 63.1637 7.13281C63.2027 7.5625 63.2223 7.9987 63.2223 8.44141C63.2223 8.6237 63.2158 8.8125 63.2027 9.00781C63.2027 9.20312 63.2027 9.39193 63.2027 9.57422L58.5152 10.4141L58.8082 12.8359C59.7978 12.7708 60.7809 12.6797 61.7574 12.5625C62.747 12.4323 63.7431 12.3216 64.7457 12.2305C64.8368 12.8815 64.928 13.5391 65.0191 14.2031C65.1103 14.8542 65.2405 15.4922 65.4098 16.1172C63.5608 16.1042 61.7249 16.1042 59.902 16.1172C58.079 16.1432 56.2431 16.1562 54.3941 16.1562C54.4332 14.6328 54.4788 13.1159 54.5309 11.6055C54.5829 10.0951 54.609 8.57161 54.609 7.03516V6.66406C54.609 5.77865 54.596 4.89974 54.5699 4.02734C54.5439 3.14193 54.5178 2.25 54.4918 1.35156C55.5204 1.36458 56.5426 1.37109 57.5582 1.37109C58.5868 1.35807 59.622 1.35156 60.6637 1.35156C61.4579 1.35156 62.2457 1.37109 63.027 1.41016C63.8212 1.4362 64.6155 1.46875 65.4098 1.50781L65.6246 4.10547ZM79.7434 15.6875C78.8579 15.7135 77.979 15.7331 77.1066 15.7461C76.2473 15.7591 75.3814 15.7656 74.509 15.7656C73.5064 15.7656 72.5038 15.7982 71.5012 15.8633C70.4986 15.9154 69.496 15.9805 68.4934 16.0586L68.4152 13.5195C69.4439 13.4935 70.4725 13.4674 71.5012 13.4414C72.5428 13.4154 73.578 13.4023 74.6066 13.4023C75.453 13.4023 76.2863 13.4089 77.1066 13.4219C77.94 13.4349 78.7733 13.4479 79.6066 13.4609L79.7434 15.6875ZM98.2371 12.5625C98.2371 13.1875 98.0874 13.6953 97.7879 14.0859C97.4884 14.4635 97.0652 14.7695 96.5184 15.0039C96.0626 15.1992 95.4897 15.3555 94.7996 15.4727C94.1095 15.5768 93.3934 15.6549 92.6512 15.707C91.909 15.7461 91.1798 15.7721 90.4637 15.7852C89.7475 15.7982 89.1486 15.8047 88.6668 15.8047C87.8465 15.8047 87.0327 15.7917 86.2254 15.7656C85.4311 15.7396 84.6238 15.7005 83.8035 15.6484C83.8426 14.3203 83.8035 13.0052 83.6863 11.7031C84.6629 11.7292 85.6329 11.7552 86.5965 11.7812C87.573 11.7943 88.5496 11.8138 89.5262 11.8398C89.9038 11.8529 90.2814 11.8659 90.659 11.8789C91.0496 11.8919 91.4402 11.8984 91.8309 11.8984C91.896 11.8984 91.9936 11.8984 92.1238 11.8984C92.254 11.8984 92.3908 11.8919 92.534 11.8789C92.6772 11.8659 92.8074 11.8464 92.9246 11.8203C93.0548 11.7943 93.1525 11.7552 93.2176 11.7031C93.2697 11.651 93.3022 11.5794 93.3152 11.4883C93.3283 11.3841 93.3348 11.293 93.3348 11.2148C93.3348 11.0716 93.3152 10.9023 93.2762 10.707C93.2371 10.4987 93.1785 10.3294 93.1004 10.1992C93.0874 10.1862 93.0418 10.1732 92.9637 10.1602C92.8986 10.1471 92.8204 10.1406 92.7293 10.1406C92.6381 10.1276 92.5535 10.1211 92.4754 10.1211C92.3973 10.1081 92.3517 10.1016 92.3387 10.1016C91.5053 10.0365 90.672 9.99089 89.8387 9.96484C89.0184 9.9388 88.1915 9.89323 87.3582 9.82812C86.9806 9.78906 86.59 9.75 86.1863 9.71094C85.7957 9.67188 85.4311 9.60026 85.0926 9.49609C84.7671 9.40495 84.4871 9.20312 84.2527 8.89062C84.0314 8.5651 83.8491 8.20052 83.7059 7.79688C83.5756 7.38021 83.478 6.96354 83.4129 6.54688C83.3608 6.13021 83.3348 5.77865 83.3348 5.49219C83.3348 5.02344 83.3803 4.58073 83.4715 4.16406C83.5626 3.73438 83.7059 3.33724 83.9012 2.97266C84.1095 2.60807 84.3699 2.28906 84.6824 2.01562C84.9949 1.72917 85.379 1.49479 85.8348 1.3125C86.616 1.01302 87.4493 0.804688 88.3348 0.6875C89.2332 0.570312 90.0926 0.511719 90.9129 0.511719C91.8764 0.511719 92.827 0.570312 93.7645 0.6875C94.702 0.804688 95.6395 0.954427 96.577 1.13672C96.5639 1.51432 96.5509 1.89193 96.5379 2.26953C96.5379 2.63411 96.5379 3.00521 96.5379 3.38281C96.5379 3.76042 96.5574 4.14453 96.5965 4.53516C96.6355 4.91276 96.6746 5.29036 96.7137 5.66797C95.4767 5.69401 94.2397 5.72005 93.0027 5.74609C91.7788 5.75911 90.5418 5.79167 89.2918 5.84375C89.1355 5.84375 88.9207 5.85026 88.6473 5.86328C88.3868 5.8763 88.1329 5.89583 87.8855 5.92188C87.6381 5.9349 87.4233 5.94792 87.241 5.96094C87.0587 5.97396 86.9676 5.98047 86.9676 5.98047C86.9025 6.1237 86.8634 6.27344 86.8504 6.42969C86.8374 6.57292 86.8309 6.72266 86.8309 6.87891C86.8309 6.95703 86.8309 7.05469 86.8309 7.17188C86.8439 7.28906 86.8764 7.38021 86.9285 7.44531C86.9415 7.45833 87.0522 7.47786 87.2605 7.50391C87.4689 7.52995 87.6967 7.55599 87.9441 7.58203C88.2046 7.60807 88.4454 7.63411 88.6668 7.66016C88.9012 7.6862 89.0444 7.69922 89.0965 7.69922C89.5262 7.73828 90.0275 7.78385 90.6004 7.83594C91.1863 7.88802 91.7788 7.94661 92.3777 8.01172C92.9897 8.07682 93.5756 8.16146 94.1355 8.26562C94.6954 8.35677 95.1837 8.46745 95.6004 8.59766C95.978 8.72786 96.323 8.9362 96.6355 9.22266C96.9611 9.49609 97.241 9.82161 97.4754 10.1992C97.7098 10.5638 97.8921 10.9544 98.0223 11.3711C98.1655 11.7747 98.2371 12.1719 98.2371 12.5625ZM115.168 15.9414L112.2 16.3906C111.991 15.7266 111.783 15.069 111.575 14.418C111.366 13.7539 111.164 13.0898 110.969 12.4258L106.164 12.6016L105.559 15.1992H102.551C102.733 12.9857 102.922 10.7852 103.118 8.59766C103.313 6.41016 103.502 4.21615 103.684 2.01562C104.621 1.85938 105.552 1.72917 106.477 1.625C107.414 1.52083 108.358 1.46875 109.309 1.46875C110.468 1.46875 111.627 1.48828 112.786 1.52734C112.994 2.88151 113.196 4.23568 113.391 5.58984C113.599 6.93099 113.814 8.27865 114.036 9.63281C114.192 10.7005 114.361 11.7552 114.543 12.7969C114.739 13.8385 114.947 14.8867 115.168 15.9414ZM110.286 9.76953C110.273 9.65234 110.24 9.4375 110.188 9.125C110.136 8.79948 110.077 8.46094 110.012 8.10938C109.947 7.74479 109.869 7.41927 109.778 7.13281C109.7 6.83333 109.621 6.65755 109.543 6.60547C109.517 6.59245 109.452 6.57943 109.348 6.56641C109.257 6.55339 109.153 6.54036 109.036 6.52734C108.931 6.51432 108.827 6.50781 108.723 6.50781C108.619 6.50781 108.547 6.50781 108.508 6.50781C108.443 6.50781 108.352 6.50781 108.235 6.50781C108.131 6.50781 108.013 6.51432 107.883 6.52734C107.766 6.52734 107.649 6.54036 107.532 6.56641C107.427 6.59245 107.356 6.625 107.317 6.66406C107.291 6.67708 107.258 6.76172 107.219 6.91797C107.18 7.07422 107.128 7.26953 107.063 7.50391C107.011 7.72526 106.952 7.96615 106.887 8.22656C106.835 8.48698 106.783 8.73438 106.731 8.96875C106.679 9.20312 106.633 9.40495 106.594 9.57422C106.568 9.74349 106.549 9.84115 106.536 9.86719L110.286 9.76953ZM128.975 15.5117C127.425 15.6289 125.882 15.7396 124.346 15.8438C122.822 15.9479 121.286 16.0456 119.736 16.1367C119.671 13.6497 119.619 11.1823 119.58 8.73438C119.541 6.27344 119.469 3.79297 119.365 1.29297C120.238 1.27995 121.097 1.25391 121.943 1.21484C122.79 1.17578 123.643 1.1237 124.502 1.05859C124.359 2.02214 124.222 2.99219 124.092 3.96875C123.975 4.93229 123.883 5.90234 123.818 6.87891C123.766 7.69922 123.721 8.51953 123.682 9.33984C123.656 10.1471 123.63 10.9609 123.604 11.7812C124.463 11.8073 125.309 11.8203 126.143 11.8203C126.989 11.8203 127.835 11.8333 128.682 11.8594L128.975 15.5117ZM144.187 4.10547C142.911 4.17057 141.642 4.24219 140.379 4.32031C139.129 4.38542 137.865 4.47005 136.589 4.57422L136.55 6.11719L141.589 5.82422C141.655 6.26693 141.7 6.70312 141.726 7.13281C141.765 7.5625 141.785 7.9987 141.785 8.44141C141.785 8.6237 141.778 8.8125 141.765 9.00781C141.765 9.20312 141.765 9.39193 141.765 9.57422L137.078 10.4141L137.371 12.8359C138.36 12.7708 139.343 12.6797 140.32 12.5625C141.309 12.4323 142.306 12.3216 143.308 12.2305C143.399 12.8815 143.49 13.5391 143.582 14.2031C143.673 14.8542 143.803 15.4922 143.972 16.1172C142.123 16.1042 140.287 16.1042 138.464 16.1172C136.642 16.1432 134.806 16.1562 132.957 16.1562C132.996 14.6328 133.041 13.1159 133.093 11.6055C133.145 10.0951 133.171 8.57161 133.171 7.03516V6.66406C133.171 5.77865 133.158 4.89974 133.132 4.02734C133.106 3.14193 133.08 2.25 133.054 1.35156C134.083 1.36458 135.105 1.37109 136.121 1.37109C137.149 1.35807 138.184 1.35156 139.226 1.35156C140.02 1.35156 140.808 1.37109 141.589 1.41016C142.384 1.4362 143.178 1.46875 143.972 1.50781L144.187 4.10547ZM163.071 12.5625C163.071 13.1875 162.922 13.6953 162.622 14.0859C162.323 14.4635 161.9 14.7695 161.353 15.0039C160.897 15.1992 160.324 15.3555 159.634 15.4727C158.944 15.5768 158.228 15.6549 157.486 15.707C156.743 15.7461 156.014 15.7721 155.298 15.7852C154.582 15.7982 153.983 15.8047 153.501 15.8047C152.681 15.8047 151.867 15.7917 151.06 15.7656C150.265 15.7396 149.458 15.7005 148.638 15.6484C148.677 14.3203 148.638 13.0052 148.521 11.7031C149.497 11.7292 150.467 11.7552 151.431 11.7812C152.407 11.7943 153.384 11.8138 154.361 11.8398C154.738 11.8529 155.116 11.8659 155.493 11.8789C155.884 11.8919 156.275 11.8984 156.665 11.8984C156.73 11.8984 156.828 11.8984 156.958 11.8984C157.088 11.8984 157.225 11.8919 157.368 11.8789C157.512 11.8659 157.642 11.8464 157.759 11.8203C157.889 11.7943 157.987 11.7552 158.052 11.7031C158.104 11.651 158.137 11.5794 158.15 11.4883C158.163 11.3841 158.169 11.293 158.169 11.2148C158.169 11.0716 158.15 10.9023 158.111 10.707C158.071 10.4987 158.013 10.3294 157.935 10.1992C157.922 10.1862 157.876 10.1732 157.798 10.1602C157.733 10.1471 157.655 10.1406 157.564 10.1406C157.473 10.1276 157.388 10.1211 157.31 10.1211C157.232 10.1081 157.186 10.1016 157.173 10.1016C156.34 10.0365 155.506 9.99089 154.673 9.96484C153.853 9.9388 153.026 9.89323 152.193 9.82812C151.815 9.78906 151.424 9.75 151.021 9.71094C150.63 9.67188 150.265 9.60026 149.927 9.49609C149.601 9.40495 149.321 9.20312 149.087 8.89062C148.866 8.5651 148.683 8.20052 148.54 7.79688C148.41 7.38021 148.312 6.96354 148.247 6.54688C148.195 6.13021 148.169 5.77865 148.169 5.49219C148.169 5.02344 148.215 4.58073 148.306 4.16406C148.397 3.73438 148.54 3.33724 148.736 2.97266C148.944 2.60807 149.204 2.28906 149.517 2.01562C149.829 1.72917 150.213 1.49479 150.669 1.3125C151.45 1.01302 152.284 0.804688 153.169 0.6875C154.068 0.570312 154.927 0.511719 155.747 0.511719C156.711 0.511719 157.661 0.570312 158.599 0.6875C159.536 0.804688 160.474 0.954427 161.411 1.13672C161.398 1.51432 161.385 1.89193 161.372 2.26953C161.372 2.63411 161.372 3.00521 161.372 3.38281C161.372 3.76042 161.392 4.14453 161.431 4.53516C161.47 4.91276 161.509 5.29036 161.548 5.66797C160.311 5.69401 159.074 5.72005 157.837 5.74609C156.613 5.75911 155.376 5.79167 154.126 5.84375C153.97 5.84375 153.755 5.85026 153.482 5.86328C153.221 5.8763 152.967 5.89583 152.72 5.92188C152.473 5.9349 152.258 5.94792 152.075 5.96094C151.893 5.97396 151.802 5.98047 151.802 5.98047C151.737 6.1237 151.698 6.27344 151.685 6.42969C151.672 6.57292 151.665 6.72266 151.665 6.87891C151.665 6.95703 151.665 7.05469 151.665 7.17188C151.678 7.28906 151.711 7.38021 151.763 7.44531C151.776 7.45833 151.887 7.47786 152.095 7.50391C152.303 7.52995 152.531 7.55599 152.779 7.58203C153.039 7.60807 153.28 7.63411 153.501 7.66016C153.736 7.6862 153.879 7.69922 153.931 7.69922C154.361 7.73828 154.862 7.78385 155.435 7.83594C156.021 7.88802 156.613 7.94661 157.212 8.01172C157.824 8.07682 158.41 8.16146 158.97 8.26562C159.53 8.35677 160.018 8.46745 160.435 8.59766C160.812 8.72786 161.157 8.9362 161.47 9.22266C161.795 9.49609 162.075 9.82161 162.31 10.1992C162.544 10.5638 162.726 10.9544 162.857 11.3711C163 11.7747 163.071 12.1719 163.071 12.5625Z" fill="#121212"/>
</svg>
