<svg width="40" height="40" viewBox="0 0 40 40" fill="none" xmlns="http://www.w3.org/2000/svg">
<rect width="40" height="40" rx="12" fill="#121212"/>
<path d="M29.01 19.22V23.71C29.01 28.2 27.22 30 22.72 30H17.33C16.75 30 16.22 29.97 15.73 29.9" stroke="white" stroke-width="1.5" stroke-linecap="round" stroke-linejoin="round"/>
<path d="M11.04 23.52V19.22" stroke="white" stroke-width="1.5" stroke-linecap="round" stroke-linejoin="round"/>
<path d="M20.0299 20C21.8599 20 23.2099 18.5101 23.0299 16.6801L22.3599 10H17.6899L17.0199 16.6801C16.8399 18.5101 18.1999 20 20.0299 20Z" stroke="white" stroke-width="1.5" stroke-linecap="round" stroke-linejoin="round"/>
<path d="M26.3301 20C28.3501 20 29.8301 18.36 29.6301 16.35L29.35 13.6C28.99 11 27.9901 10 25.3701 10H22.3201L23.0201 17.01C23.2001 18.66 24.6801 20 26.3301 20Z" stroke="white" stroke-width="1.5" stroke-linecap="round" stroke-linejoin="round"/>
<path d="M13.67 20C15.32 20 16.81 18.66 16.97 17.01L17.1901 14.8L17.67 10H14.6201C12.0001 10 11.0001 11 10.6401 13.6L10.36 16.35C10.16 18.36 11.65 20 13.67 20Z" stroke="white" stroke-width="1.5" stroke-linecap="round" stroke-linejoin="round"/>
<path d="M17 27C17 27.75 16.79 28.4601 16.42 29.0601C16.23 29.3801 16 29.67 15.73 29.9C15.7 29.94 15.67 29.97 15.63 30C14.93 30.63 14.01 31 13 31C11.78 31 10.69 30.45 9.96997 29.59C9.94997 29.56 9.92002 29.54 9.90002 29.51C9.78002 29.37 9.67002 29.2201 9.58002 29.0601C9.21002 28.4601 9 27.75 9 27C9 25.74 9.58 24.61 10.5 23.88C10.67 23.74 10.85 23.62 11.04 23.52C11.62 23.19 12.29 23 13 23C14 23 14.9 23.36 15.6 23.97C15.72 24.06 15.83 24.17 15.93 24.28C16.59 25 17 25.95 17 27Z" stroke="white" stroke-width="1.5" stroke-miterlimit="10" stroke-linecap="round" stroke-linejoin="round"/>
<path d="M14.49 26.98H11.51" stroke="white" stroke-width="1.5" stroke-miterlimit="10" stroke-linecap="round" stroke-linejoin="round"/>
<path d="M13 25.52V28.51" stroke="white" stroke-width="1.5" stroke-miterlimit="10" stroke-linecap="round" stroke-linejoin="round"/>
</svg>
