<svg width="93" height="34" viewBox="0 0 93 34" fill="none" xmlns="http://www.w3.org/2000/svg">
<rect x="1" y="1" width="91" height="32" rx="4" fill="white"/>
<rect x="1" y="1" width="91" height="32" rx="4" stroke="#9E9E9E" stroke-width="0.5"/>
<path d="M57.8658 5C52.5475 5 47.7724 7.73882 47.7724 12.7647C47.7724 18.5529 56.2074 18.9482 56.2074 21.8282C56.2074 23.0424 54.7777 24.1435 52.3759 24.1435C48.9447 24.1435 46.3713 22.6188 46.3713 22.6188L45.2848 27.7012C45.2848 27.7012 48.2299 29 52.1758 29C58.0088 29 62.5837 26.1482 62.5837 21.0094C62.5837 14.9106 54.1201 14.5153 54.1201 11.8329C54.1201 10.8729 55.2924 9.82824 57.6942 9.82824C60.4106 9.82824 62.6409 10.9294 62.6409 10.9294L63.7274 6.01647C63.6988 6.01647 61.2684 5 57.8658 5ZM9.14297 5.36706L9 6.10118C9 6.10118 11.2303 6.49647 13.2604 7.31529C15.8624 8.24706 16.0339 8.78353 16.4914 10.4494L21.2665 28.6047H27.6714L37.4788 5.36706H31.1026L24.7835 21.1788L22.2101 7.76706C21.9813 6.24235 20.7804 5.36706 19.2936 5.36706H9.14297ZM40.0522 5.36706L35.0484 28.6047H41.1388L46.114 5.36706H40.0522ZM73.9638 5.36706C72.5055 5.36706 71.7335 6.12941 71.1616 7.48471L62.2406 28.6047H68.6169L69.8464 25.0753H77.6237L78.3671 28.6047H84L79.1106 5.36706H73.9638ZM74.793 11.6635L76.6801 20.3882H71.6191L74.793 11.6635Z" fill="#1434CB"/>
</svg>
